<?xml version="1.0" standalone="no"?>
<!DOCTYPE svg PUBLIC "-//W3C//DTD SVG 20010904//EN"
 "http://www.w3.org/TR/2001/REC-SVG-20010904/DTD/svg10.dtd">
<svg version="1.0" xmlns="http://www.w3.org/2000/svg"
 width="428.000000pt" height="420.000000pt" viewBox="0 0 428.000000 420.000000"
 preserveAspectRatio="xMidYMid meet">
<metadata>
Created by potrace 1.16, written by Peter Selinger 2001-2019
</metadata>
<g transform="translate(0.000000,420.000000) scale(0.100000,-0.100000)"
fill="#000000" stroke="none">
<path d="M0 3913 l1 -288 24 69 c48 135 132 254 236 337 l40 31 53 -28 c41
-22 56 -35 60 -56 5 -23 11 -28 36 -28 16 0 30 -3 30 -7 0 -5 -14 -28 -30 -53
-29 -43 -40 -77 -21 -66 5 3 11 -3 14 -13 6 -26 86 -49 98 -29 7 11 11 10 18
-1 8 -12 14 -13 36 -3 23 11 26 17 23 55 -2 37 0 42 21 45 19 3 22 0 16 -18
-4 -11 -2 -27 4 -34 8 -9 3 -18 -19 -35 -17 -12 -30 -26 -30 -31 0 -17 67 -11
120 10 91 36 109 21 30 -25 -80 -48 -61 -68 37 -39 18 5 23 1 29 -20 5 -21 16
-29 57 -41 28 -8 61 -15 74 -15 40 0 15 -20 -25 -21 -47 -1 -80 -13 -64 -23
21 -13 13 -22 -28 -36 -22 -7 -40 -19 -40 -26 0 -6 34 -24 76 -40 l76 -28 -26
-19 c-32 -23 -33 -37 -3 -37 16 0 28 -9 35 -25 6 -14 18 -25 26 -25 7 0 16 -9
19 -20 4 -16 14 -20 50 -20 32 0 47 5 51 16 5 13 9 14 21 4 8 -6 20 -8 27 -4
7 4 30 7 53 5 30 -1 52 5 85 27 60 38 80 45 80 28 0 -8 -16 -26 -35 -40 -19
-15 -35 -36 -35 -47 0 -24 11 -24 52 1 42 25 43 25 57 -8 11 -27 12 -27 94
-24 87 4 92 -3 24 -28 -32 -12 -41 -21 -39 -35 3 -12 -8 -29 -30 -46 -18 -15
-30 -31 -26 -35 4 -4 41 -9 83 -12 41 -2 75 -7 75 -9 0 -3 -8 -18 -17 -34 -20
-33 -11 -49 17 -31 17 10 20 10 20 -3 0 -26 37 -16 65 17 15 17 38 56 50 85
13 29 26 53 29 53 14 0 46 -42 46 -61 0 -16 4 -19 20 -14 12 4 20 2 20 -5 0
-6 12 -27 26 -45 22 -29 31 -34 65 -32 21 2 40 -2 42 -7 5 -16 87 12 87 30 0
11 6 13 21 9 26 -9 39 8 39 52 0 23 -5 33 -21 38 -16 5 -18 10 -8 21 31 37 64
-4 54 -68 -7 -38 -6 -40 16 -33 13 3 47 32 76 63 29 31 55 53 58 50 4 -3 -3
-24 -14 -47 -22 -41 -28 -81 -13 -81 5 0 23 16 41 35 l32 36 20 -26 c25 -31
29 -31 103 0 33 13 62 22 65 20 7 -8 -32 -47 -56 -56 -26 -10 -31 -39 -7 -39
12 0 10 -7 -10 -31 -37 -43 -34 -61 6 -54 18 3 55 9 81 14 45 8 48 7 43 -10
-3 -11 -9 -28 -12 -39 -8 -25 21 -28 34 -4 6 11 11 13 16 5 11 -17 41 -13 59
7 10 11 17 35 17 58 0 21 5 56 11 77 8 30 13 36 27 28 9 -4 23 -6 30 -4 7 3
12 -5 12 -21 0 -28 18 -34 38 -14 9 9 12 7 12 -11 0 -20 3 -22 30 -16 30 6 31
6 24 -21 -6 -25 -5 -26 19 -20 19 4 29 1 36 -11 9 -15 12 -15 20 -4 5 8 16 11
30 6 14 -4 23 -2 27 9 3 8 29 22 57 31 29 9 58 19 65 21 6 3 12 -1 12 -10 0
-9 6 -16 14 -16 7 0 43 -27 80 -61 36 -33 107 -89 158 -122 101 -69 125 -95
138 -153 5 -21 10 -175 10 -342 0 -262 -3 -315 -19 -395 -11 -50 -30 -146 -42
-212 -24 -134 -57 -213 -118 -285 l-39 -45 -11 45 c-23 90 -67 205 -96 255
-25 41 -42 56 -99 86 -38 19 -76 45 -83 56 -8 12 -15 51 -16 92 -2 60 -7 76
-32 112 -47 66 -77 84 -144 84 -72 -1 -106 -21 -161 -97 -52 -74 -53 -108 -4
-151 20 -18 43 -47 50 -64 16 -37 78 -74 125 -75 37 -1 36 -7 -2 -44 -17 -16
-42 -49 -56 -74 -14 -25 -36 -62 -50 -83 l-23 -37 -74 0 c-83 0 -101 11 -92
57 7 35 7 36 -87 111 -49 39 -88 62 -103 62 -41 0 -114 -48 -114 -74 0 -21 37
-66 54 -66 18 0 79 -57 102 -96 23 -38 31 -44 79 -54 30 -6 64 -19 76 -29 l21
-17 -20 -40 c-11 -21 -47 -84 -81 -139 -33 -55 -61 -108 -61 -117 0 -46 -35
-71 -141 -102 -61 -17 -75 -29 -81 -64 -2 -20 -26 -34 -149 -87 -80 -34 -166
-74 -190 -88 -24 -14 -93 -40 -154 -57 -60 -17 -189 -56 -285 -87 -196 -61
-193 -60 -345 -98 -226 -57 -317 -76 -580 -119 -381 -63 -394 -65 -404 -52
-17 22 -54 102 -77 166 l-23 65 0 -282 -1 -283 2140 0 2140 0 0 809 0 809 -37
7 c-50 9 -142 51 -171 78 -26 24 -59 84 -74 132 -13 43 -29 373 -34 712 -5
332 -13 299 86 329 38 11 65 31 125 90 48 49 81 74 90 70 13 -5 15 69 15 579
l0 585 -2140 0 -2140 0 0 -287z m3521 -539 c7 -9 22 -14 36 -11 13 2 23 1 23
-2 0 -3 6 -27 14 -52 13 -44 13 -49 -16 -117 -16 -40 -34 -72 -39 -72 -19 0
-59 50 -59 73 0 13 -13 48 -29 78 l-29 54 31 33 c35 36 49 39 68 16z m-37
-382 c23 -34 34 -72 21 -72 -13 0 -155 73 -155 80 0 5 -14 22 -31 39 -17 17
-29 31 -27 32 2 0 14 3 27 5 14 2 26 6 28 8 11 10 114 -59 137 -92z m-613
-1833 l70 -42 -28 -16 c-58 -35 -259 -97 -286 -88 -12 4 149 187 165 187 5 0
41 -19 79 -41z"/>
</g>
</svg>
